# xmcd
#
# Track frame offsets:
#	150
#	16610
#	31556
#	47996
#	67820
#	81069
#	100622
#	115134
#	124736
#	136750
#	162623
#	177923
#	194122
#	207893
#	224395
#	235210
#	249678
#	265147
#	282335
#	293205
#	307007
#
# Disc length: 4337 seconds
#
# Revision: 1
# Processed by: cddbd v1.5.2PL0 Copyright (c) Steve Scherf et al.
# Submitted via: audiograbber 1.82.01
#
DISCID=2e10ef15
DTITLE=Various Artist - Хиты Под Водочку 9 бутылек
DYEAR=2003
DGENRE=
TTITLE0=Г. Жаров - Наташка
TTITLE1=В. Пряников - Братан
TTITLE2=С. Грубов - Зеленый Змей
TTITLE3=С. Исетский - Танюша
TTITLE4=М. Серебро - Я попрежнему вас люблю
TTITLE5=О. Ветер - Именины
TTITLE6=Т.Треф - Разлучница
TTITLE7=И. Заяц - Тетя Зина
TTITLE8=В. Бажиновский - Гагры и Таити
TTITLE9=А. Школин - Лезгинка
TTITLE10=С. Гвоздика - Настя
TTITLE11=А. Шутов - Проспект
TTITLE12=В. Третьяков - Чебурашка
TTITLE13=А. Куликов - Развод
TTITLE14=А. Новиков - Ласты
TTITLE15=Е. Алтайский - Карты И Рулеточка
TTITLE16=В. Кружевкий - Откидной
TTITLE17=И. Кучин - Сентиментальный Детектив 3
TTITLE18=С. Грач - За Друзей И Врагов
TTITLE19=А. Днепров - Еще Не Вечер
TTITLE20=М. Шуфутинский - Костровая
EXTD=
EXTT0=
EXTT1=
EXTT2=
EXTT3=
EXTT4=
EXTT5=
EXTT6=
EXTT7=
EXTT8=
EXTT9=
EXTT10=
EXTT11=
EXTT12=
EXTT13=
EXTT14=
EXTT15=
EXTT16=
EXTT17=
EXTT18=
EXTT19=
EXTT20=
PLAYORDER=
